{
    "asset": {
        "generator": "FBX2glTF",
        "version": "2.0"
    },
    "scene": 0,
    "buffers": [
        {
            "byteLength": 2932,
            "uri": "buffer.bin"
        }
    ],
    "bufferViews": [
        {
            "buffer": 0,
            "byteLength": 116,
            "byteOffset": 0
        },
        {
            "buffer": 0,
            "byteLength": 464,
            "byteOffset": 116
        },
        {
            "buffer": 0,
            "byteLength": 144,
            "byteOffset": 580,
            "target": 34963
        },
        {
            "buffer": 0,
            "byteLength": 432,
            "byteOffset": 724,
            "target": 34962
        },
        {
            "buffer": 0,
            "byteLength": 432,
            "byteOffset": 1156,
            "target": 34962
        },
        {
            "buffer": 0,
            "byteLength": 288,
            "byteOffset": 1588,
            "target": 34962
        },
        {
            "buffer": 0,
            "byteLength": 288,
            "byteOffset": 1876,
            "target": 34962
        },
        {
            "buffer": 0,
            "byteLength": 576,
            "byteOffset": 2164,
            "target": 34962
        },
        {
            "buffer": 0,
            "byteLength": 192,
            "byteOffset": 2740
        }
    ],
    "scenes": [
        {
            "name": "Root Scene",
            "nodes": [
                0
            ]
        }
    ],
    "accessors": [
        {
            "componentType": 5126,
            "type": "SCALAR",
            "count": 29,
            "bufferView": 0,
            "byteOffset": 0,
            "min": [
                0.0
            ],
            "max": [
                1.16666662693024
            ]
        },
        {
            "componentType": 5126,
            "type": "VEC4",
            "count": 29,
            "bufferView": 1,
            "byteOffset": 0
        },
        {
            "componentType": 5123,
            "type": "SCALAR",
            "count": 72,
            "bufferView": 2,
            "byteOffset": 0
        },
        {
            "componentType": 5126,
            "type": "VEC3",
            "count": 36,
            "bufferView": 3,
            "byteOffset": 0,
            "min": [
                -0.00965755991637707,
                0.0,
                -0.00999999977648258
            ],
            "max": [
                0.00965755991637707,
                3.81504723918624e-05,
                0.00999999977648258
            ]
        },
        {
            "componentType": 5126,
            "type": "VEC3",
            "count": 36,
            "bufferView": 4,
            "byteOffset": 0
        },
        {
            "componentType": 5126,
            "type": "VEC2",
            "count": 36,
            "bufferView": 5,
            "byteOffset": 0
        },
        {
            "componentType": 5123,
            "type": "VEC4",
            "count": 36,
            "bufferView": 6,
            "byteOffset": 0
        },
        {
            "componentType": 5126,
            "type": "VEC4",
            "count": 36,
            "bufferView": 7,
            "byteOffset": 0
        },
        {
            "componentType": 5126,
            "type": "MAT4",
            "count": 3,
            "bufferView": 8,
            "byteOffset": 0
        }
    ],
    "images": [
        {
            "name": "Menu-01.png",
            "uri": "Menu-01.png"
        }
    ],
    "samplers": [
        {}
    ],
    "textures": [
        {
            "name": "base_color_texture",
            "sampler": 0,
            "source": 0
        }
    ],
    "materials": [
        {
            "name": "Material",
            "alphaMode": "BLEND",
            "extras": {
                "fromFBX": {
                    "shadingModel": "Phong",
                    "isTruePBR": false
                }
            },
            "pbrMetallicRoughness": {
                "baseColorTexture": {
                    "index": 0,
                    "texCoord": 0
                },
                "baseColorFactor": [
                    1.0,
                    1.0,
                    1.0,
                    1.0
                ],
                "metallicFactor": 0.400000005960464,
                "roughnessFactor": 0.272165536880493
            }
        }
    ],
    "meshes": [
        {
            "name": "Menu_mesh",
            "primitives": [
                {
                    "material": 0,
                    "mode": 4,
                    "attributes": {
                        "JOINTS_0": 6,
                        "NORMAL": 4,
                        "POSITION": 3,
                        "TEXCOORD_0": 5,
                        "WEIGHTS_0": 7
                    },
                    "indices": 2
                }
            ]
        }
    ],
    "skins": [
        {
            "joints": [
                3,
                4,
                6
            ],
            "inverseBindMatrices": 8,
            "skeleton": 3
        }
    ],
    "animations": [
        {
            "name": "001_Menu",
            "channels": [
                {
                    "sampler": 0,
                    "target": {
                        "node": 6,
                        "path": "rotation"
                    }
                }
            ],
            "samplers": [
                {
                    "input": 0,
                    "interpolation": "LINEAR",
                    "output": 1
                }
            ]
        }
    ],
    "nodes": [
        {
            "name": "RootNode",
            "translation": [
                0.0,
                0.0,
                0.0
            ],
            "rotation": [
                0.0,
                0.0,
                0.0,
                1.0
            ],
            "scale": [
                1.0,
                1.0,
                1.0
            ],
            "children": [
                1,
                2
            ]
        },
        {
            "name": "Menu_mesh",
            "translation": [
                0.0,
                0.0,
                0.0
            ],
            "rotation": [
                6.12323426292584e-17,
                1.0,
                6.12323426292584e-17,
                3.74939939305299e-33
            ],
            "scale": [
                100.0,
                100.0,
                100.0
            ],
            "mesh": 0,
            "skin": 0
        },
        {
            "name": "Menu",
            "translation": [
                0.0,
                0.0,
                0.0
            ],
            "rotation": [
                -0.707106709480286,
                3.09086161109917e-08,
                -3.09086232164191e-08,
                0.707106828689575
            ],
            "scale": [
                100.0,
                100.0,
                100.0
            ],
            "children": [
                3
            ]
        },
        {
            "name": "Bone.002",
            "translation": [
                0.0,
                0.0,
                0.0
            ],
            "rotation": [
                0.707106828689575,
                -2.54265258534841e-30,
                -3.77603128727072e-30,
                0.707106709480286
            ],
            "scale": [
                1.0,
                1.0,
                1.0
            ],
            "children": [
                4,
                6
            ]
        },
        {
            "name": "Bone.001.L",
            "translation": [
                0.000920954917091876,
                4.54711916972883e-05,
                -2.06795148516025e-27
            ],
            "rotation": [
                1.8957504721584e-07,
                1.89575075637549e-07,
                -0.707106709480286,
                0.707106828689575
            ],
            "scale": [
                1.0,
                1.0,
                1.0
            ],
            "children": [
                5
            ]
        },
        {
            "name": "Bone.001.L_end",
            "translation": [
                -8.67361718601358e-21,
                0.00883948523551226,
                8.271805940641e-27
            ],
            "rotation": [
                -0.0,
                -5.29395592033938e-23,
                -8.37076951495116e-24,
                1.0
            ],
            "scale": [
                1.0,
                1.0,
                1.0
            ]
        },
        {
            "name": "Bone.001.R",
            "translation": [
                0.000136211572680622,
                8.15819294075482e-05,
                -2.57286858484918e-10
            ],
            "rotation": [
                4.45325696318832e-07,
                4.41045898469383e-07,
                -0.703684508800507,
                0.710512578487396
            ],
            "scale": [
                0.99999988079071,
                0.99999988079071,
                1.0
            ],
            "children": [
                7
            ]
        },
        {
            "name": "Bone.001.R_end",
            "translation": [
                -1.73472343720272e-20,
                0.00870532169938087,
                -6.6174447525128e-26
            ],
            "rotation": [
                3.06996467564281e-41,
                -1.05879118406788e-22,
                2.89952266353066e-19,
                1.0
            ],
            "scale": [
                1.0,
                1.0,
                1.0
            ]
        }
    ]
}